<svg viewBox="0 0 70 70" fill="none" xmlns="http://www.w3.org/2000/svg"><path d="M35 70C54.33 70 70 54.33 70 35C70 15.67 54.33 0 35 0C15.67 0 0 15.67 0 35C0 54.33 15.67 70 35 70Z" fill="#323232"/><path d="M28.5845 43.5078V26.1055C28.5845 26.1055 32.1807 26.1055 39.373 26.1055C41.1162 26.1055 42.6104 26.9624 43.8555 28.6763C45.1152 30.3755 45.7451 32.4189 45.7451 34.8066C45.7451 37.209 45.1152 39.2598 43.8555 40.959C42.6104 42.6582 41.1162 43.5078 39.373 43.5078H28.5845ZM30.1665 41.9258H39.373C40.6768 41.9258 41.79 41.23 42.7129 39.8384C43.6504 38.4468 44.1191 36.7695 44.1191 34.8066C44.1191 32.8291 43.6504 31.1519 42.7129 29.7749C41.79 28.3833 40.6768 27.6875 39.373 27.6875H30.1665V41.9258ZM27.0024 45.0898H39.373C41.5557 45.0898 43.4307 44.0864 44.998 42.0796C46.5801 40.0581 47.3711 37.6338 47.3711 34.8066C47.3711 32.9463 47.0049 31.2251 46.2725 29.6431C45.5547 28.061 44.5806 26.8159 43.3501 25.9077C42.1343 24.9849 40.8086 24.5234 39.373 24.5234H27.0024V45.0898ZM25.4204 46.6719V22.9414H39.373C41.0869 22.9414 42.6836 23.4688 44.1631 24.5234C45.6426 25.5781 46.8145 27.021 47.6787 28.8521C48.5576 30.6685 48.9971 32.6533 48.9971 34.8066C48.9971 36.9453 48.5576 38.9302 47.6787 40.7612C46.8145 42.5923 45.6426 44.0352 44.1631 45.0898C42.6836 46.1445 41.0869 46.6719 39.373 46.6719H25.4204ZM23.8384 48.2539H39.373C41.3799 48.2539 43.2402 47.6533 44.9541 46.4521C46.6826 45.251 48.0596 43.6177 49.085 41.5522C50.1104 39.4868 50.623 37.2383 50.623 34.8066C50.623 32.3896 50.1104 30.1484 49.085 28.083C48.0596 26.0029 46.6826 24.3623 44.9541 23.1611C43.2256 21.96 41.3652 21.3594 39.373 21.3594H23.8384V48.2539ZM22.2563 49.8359V19.7773H39.373C41.6582 19.7773 43.7896 20.4512 45.7671 21.7988C47.7446 23.1318 49.3193 24.9556 50.4912 27.27C51.6631 29.5845 52.249 32.0967 52.249 34.8066C52.249 37.5166 51.6631 40.0288 50.4912 42.3433C49.3193 44.6577 47.7446 46.4888 45.7671 47.8364C43.7896 49.1694 41.6582 49.8359 39.373 49.8359H22.2563ZM20.6743 51.418H39.373C41.292 51.418 43.145 50.9785 44.9321 50.0996C46.7192 49.2207 48.2646 48.0415 49.5684 46.562C50.8721 45.0825 51.9121 43.3174 52.6885 41.2666C53.4795 39.2012 53.875 37.0479 53.875 34.8066C53.875 32.5654 53.4795 30.4194 52.6885 28.3687C51.9121 26.3179 50.8721 24.5527 49.5684 23.0732C48.2646 21.5791 46.7192 20.3926 44.9321 19.5137C43.145 18.6348 41.292 18.1953 39.373 18.1953H20.6743V51.418ZM39.373 53H19.0923V16.6133H39.373C42.2295 16.6133 44.8955 17.4263 47.3711 19.0522C49.8467 20.6782 51.8169 22.8901 53.2817 25.688C54.7612 28.4858 55.501 31.5254 55.501 34.8066C55.501 37.2676 55.0615 39.626 54.1826 41.8818C53.3184 44.123 52.1611 46.0566 50.7109 47.6826C49.2607 49.3086 47.5396 50.605 45.5474 51.5718C43.5698 52.5239 41.5117 53 39.373 53Z" fill="white"/></svg>